<?xml version="1.0" standalone="no"?>
<!DOCTYPE svg PUBLIC "-//W3C//DTD SVG 20010904//EN"
 "http://www.w3.org/TR/2001/REC-SVG-20010904/DTD/svg10.dtd">
<svg version="1.0" xmlns="http://www.w3.org/2000/svg"
 width="359.000000pt" height="67.000000pt" viewBox="0 0 359.000000 67.000000"
 preserveAspectRatio="xMidYMid meet">

<g transform="translate(0.000000,67.000000) scale(0.100000,-0.100000)"
fill="#000000" stroke="none">
<path d="M280 467 c-48 -25 -90 -89 -90 -137 0 -48 42 -112 90 -137 54 -29 94
-29 150 0 64 32 85 66 85 137 0 69 -20 103 -81 137 -50 29 -100 29 -154 0z
m148 -7 c33 -15 47 -29 62 -62 25 -55 25 -82 -1 -136 -33 -67 -114 -98 -186
-71 -101 38 -131 169 -56 241 53 51 111 60 181 28z"/>
<path d="M323 385 c-9 -24 1 -27 15 -5 8 13 8 20 2 20 -6 0 -13 -7 -17 -15z"/>
<path d="M368 393 c17 -7 15 -38 -3 -53 -8 -7 -15 -22 -14 -34 0 -15 2 -17 7
-6 4 8 15 27 26 43 15 22 16 30 6 42 -7 8 -18 15 -24 14 -7 0 -6 -2 2 -6z"/>
<path d="M594 447 c-2 -7 -3 -65 -2 -128 3 -106 4 -114 23 -114 16 0 21 8 23
38 l3 37 70 0 c55 0 69 3 69 15 0 12 -14 15 -70 15 -63 0 -70 2 -70 20 0 18 7
20 71 20 62 0 70 2 67 18 -3 14 -16 18 -71 20 -50 2 -67 7 -67 17 0 10 17 15
67 17 55 2 68 6 71 21 3 15 -6 17 -88 17 -65 0 -92 -4 -96 -13z"/>
<path d="M970 453 c-28 -10 -70 -56 -81 -90 -14 -43 1 -90 42 -129 26 -25 38
-29 87 -29 65 0 102 21 127 72 19 40 19 66 -1 109 -28 58 -110 90 -174 67z
m90 -38 c35 -18 50 -43 50 -85 0 -44 -16 -69 -56 -86 -29 -12 -39 -12 -68 0
-40 17 -56 42 -56 88 0 39 23 76 54 88 31 13 44 12 76 -5z"/>
<path d="M1000 344 c-11 -12 -10 -18 3 -32 16 -15 18 -15 34 0 13 14 14 20 3
32 -7 9 -16 16 -20 16 -4 0 -13 -7 -20 -16z"/>
<path d="M1270 331 c0 -124 1 -131 20 -131 17 0 20 7 20 51 l0 50 38 -3 c33
-3 39 -8 61 -51 15 -31 29 -47 42 -47 24 0 24 11 -2 62 -15 29 -18 43 -10 46
44 15 57 95 20 128 -16 15 -40 20 -105 23 l-84 3 0 -131z m73 54 c23 -47 22
-55 -8 -55 -23 0 -25 4 -25 45 0 54 10 57 33 10z m87 21 c14 -18 10 -58 -7
-63 -9 -3 -43 54 -43 73 0 11 39 2 50 -10z"/>
<path d="M1754 443 c11 -28 127 -223 137 -228 4 -3 18 13 31 35 13 22 26 40
30 40 4 0 17 -18 29 -40 13 -22 25 -40 28 -40 5 0 132 208 149 243 2 4 -90 7
-203 7 -193 0 -207 -1 -201 -17z m152 -67 c18 -31 20 -44 11 -63 -5 -12 -15
-23 -21 -23 -11 0 -76 104 -76 121 0 6 15 9 32 7 26 -2 37 -11 54 -42z m64 37
c0 -5 -4 -14 -9 -22 -7 -11 -11 -9 -20 8 -10 18 -9 21 9 21 11 0 20 -3 20 -7z
m120 3 c0 -12 -74 -126 -81 -126 -5 0 -14 11 -20 24 -9 18 -7 31 10 65 19 36
25 41 56 41 19 0 35 -2 35 -4z"/>
<path d="M2260 330 c0 -122 1 -130 19 -130 16 0 20 8 23 38 l3 37 67 3 67 3 3
-38 c2 -30 7 -38 23 -38 19 0 20 7 20 125 0 118 -1 125 -20 125 -15 0 -21 -8
-23 -32 l-3 -33 -70 0 -69 0 0 35 c0 28 -4 35 -20 35 -19 0 -20 -7 -20 -130z
m180 5 c0 -12 -14 -15 -70 -15 -56 0 -70 3 -70 15 0 12 14 15 70 15 56 0 70
-3 70 -15z"/>
<path d="M2920 440 c0 -17 6 -20 45 -20 l45 0 0 -110 c0 -103 1 -110 20 -110
18 0 20 8 22 108 l3 107 45 5 c31 3 45 10 45 20 0 12 -20 16 -112 18 -108 3
-113 2 -113 -18z"/>
<path d="M3220 440 c0 -18 7 -20 60 -20 56 0 60 -1 60 -23 0 -17 -10 -29 -35
-43 -27 -14 -35 -25 -35 -46 0 -21 5 -28 20 -28 11 0 20 6 20 14 0 8 16 24 35
36 31 19 35 26 35 64 0 23 -5 47 -12 54 -7 7 -40 12 -80 12 -61 0 -68 -2 -68
-20z"/>
<path d="M2706 428 c-8 -13 -41 -68 -74 -123 l-61 -100 146 -3 c80 -1 148 -1
150 2 5 4 -135 246 -142 246 -3 0 -11 -10 -19 -22z m58 -117 c20 -32 36 -61
36 -65 0 -3 -34 -6 -75 -6 -41 0 -75 4 -75 9 0 13 64 121 72 121 4 0 23 -26
42 -59z"/>
<path d="M3270 220 c0 -13 7 -20 20 -20 13 0 20 7 20 20 0 13 -7 20 -20 20
-13 0 -20 -7 -20 -20z"/>
</g>
</svg>
